<?xml version="1.0" encoding="UTF-8"?>
<!DOCTYPE svg PUBLIC "-//W3C//DTD SVG 1.1//EN" "http://www.w3.org/Graphics/SVG/1.1/DTD/svg11.dtd">
<!-- Creator: CorelDRAW -->
<svg xmlns="http://www.w3.org/2000/svg" xml:space="preserve" width="1181px" height="1181px" version="1.1" style="shape-rendering:geometricPrecision; text-rendering:geometricPrecision; image-rendering:optimizeQuality; fill-rule:evenodd; clip-rule:evenodd"
viewBox="0 0 9.61 9.61"
 xmlns:xlink="http://www.w3.org/1999/xlink"
 xmlns:xodm="http://www.corel.com/coreldraw/odm/2003">
 <defs>
  <style type="text/css">
   <![CDATA[
    .fil4 {fill:none}
    .fil6 {fill:black}
    .fil2 {fill:black}
    .fil0 {fill:#73ACDF}
    .fil3 {fill:#990000}
    .fil1 {fill:white}
    .fil5 {fill:black;fill-rule:nonzero}
   ]]>
  </style>
 </defs>
 <g id="Capa_x0020_1">
  <metadata id="CorelCorpID_0Corel-Layer"/>
  <g id="_105553164280000">
   <path class="fil0" d="M4.81 0.18c2.55,0 4.62,2.07 4.62,4.63 0,2.55 -2.07,4.62 -4.62,4.62 -2.56,0 -4.63,-2.07 -4.63,-4.62 0,-2.56 2.07,-4.63 4.63,-4.63z"/>
   <path class="fil1" d="M4.81 1.67c1.73,0 3.14,1.4 3.14,3.14 0,1.73 -1.41,3.14 -3.14,3.14 -1.74,0 -3.14,-1.41 -3.14,-3.14 0,-1.74 1.4,-3.14 3.14,-3.14z"/>
   <path class="fil0" d="M4.81 3.13c0.92,0 1.67,0.75 1.67,1.68 0,0.92 -0.75,1.67 -1.67,1.67 -0.93,0 -1.68,-0.75 -1.68,-1.67 0,-0.93 0.75,-1.68 1.68,-1.68z"/>
   <g>
    <path class="fil2" d="M6.46 9.12c0.44,-1.08 0.61,-2.43 0.6,-2.7 -0.11,-0.54 -0.49,-1.62 -1.21,-1.64l-1.12 -0.02c-0.15,0 -0.27,0.1 -0.29,0.24 0,0.03 -0.02,0.04 -0.05,0.04l-0.87 0c-0.38,0 -0.68,0.31 -0.68,0.59l0 1.01c0.2,-0.1 1.08,-0.33 1.6,0.42 0.22,0.47 1.12,1.55 1.58,2.21 0.15,-0.04 0.3,-0.09 0.44,-0.15z"/>
    <path class="fil1" d="M6.22 9.21c0.22,-0.49 0.37,-1.04 0.47,-1.54 0.06,-0.27 0.11,-0.54 0.14,-0.81 0.01,-0.09 0.02,-0.18 0.03,-0.28 0,-0.04 0.01,-0.09 0.01,-0.14 -0.1,-0.47 -0.45,-1.45 -1.03,-1.47l-1.12 -0.02c-0.05,0 -0.09,0.05 -0.09,0.09 0,0.11 -0.09,0.19 -0.19,0.19l-0.92 0c-0.13,0 -0.26,0.05 -0.35,0.14 -0.07,0.06 -0.14,0.16 -0.14,0.26l0 0.75c0.17,-0.04 0.36,-0.05 0.5,-0.04 0.44,0.03 0.81,0.24 1.07,0.61 0,0.01 0.01,0.01 0.01,0.03 0.09,0.17 0.22,0.37 0.34,0.53 0.17,0.24 0.35,0.47 0.53,0.71 0.18,0.24 0.37,0.48 0.55,0.72 0.06,0.09 0.13,0.18 0.19,0.27z"/>
    <path class="fil2" d="M6.22 9.21l0 0c-0.03,0.01 -0.06,0.02 -0.1,0.03 -0.18,-0.25 -0.41,-0.55 -0.56,-0.77 -0.16,-0.22 -0.31,-0.44 -0.45,-0.66 -0.19,-0.31 -0.39,-0.67 -0.47,-1.03 -0.09,-0.39 -0.12,-0.79 -0.1,-1.19 0.01,-0.13 0.02,-0.27 0.04,-0.4 0.02,-0.09 0.03,-0.17 0.05,-0.26l0.09 0.02c-0.04,0.23 -0.19,0.9 0.01,1.81 0.13,0.55 0.62,1.29 1.49,2.45z"/>
    <path class="fil2" d="M2.99 6.35c0.16,-0.2 0.44,-0.3 0.68,-0.34 0.14,-0.03 0.29,-0.04 0.44,-0.05 0.16,-0.01 0.31,-0.01 0.47,-0.01 0.02,0 0.04,0.02 0.04,0.05 0,0.03 -0.02,0.05 -0.05,0.05 -0.41,-0.01 -1.23,0 -1.5,0.36l-0.08 -0.06z"/>
    <path class="fil2" d="M6.27 5.09l0.13 0.23c0.05,-0.16 0.08,-0.33 0.08,-0.51 0,-0.17 -0.03,-0.34 -0.07,-0.49 -0.05,-0.16 -0.23,-0.26 -0.39,-0.26l-1.42 0c-0.34,0 -0.62,0.23 -0.68,0.56l-0.08 0.43 0.18 0.04 0.08 -0.44c0.05,-0.24 0.25,-0.41 0.5,-0.41l1.42 0c0.08,0 0.19,0.05 0.21,0.13 0.04,0.14 0.07,0.29 0.07,0.44 0,0.09 -0.01,0.19 -0.03,0.28z"/>
    <path class="fil2" d="M4.56 7c0.04,0.1 0.05,0.19 -0.04,0.23 -0.16,0.07 -0.25,0.18 -0.26,0.35 0,0.08 0.02,0.21 0.05,0.29 0.26,0.43 0.54,0.86 0.85,1.25 0,0 0,0 0,0.01 0.08,0.1 0.15,0.19 0.24,0.26 -0.09,0.01 -0.17,0.02 -0.25,0.03 -0.05,-0.06 -0.1,-0.12 -0.14,-0.18 -0.3,-0.37 -0.62,-0.86 -0.86,-1.27 -0.03,-0.05 -0.29,-0.67 0.29,-0.91l0.12 -0.06z"/>
    <path class="fil2" d="M5.68 5.23l-0.56 0c-0.11,0 -0.06,0.2 -0.17,0.2l-0.02 0 0.56 0c0.11,0 0.19,-0.09 0.19,-0.2z"/>
    <path class="fil2" d="M5.12 5.23c0.11,0 0.19,0.09 0.19,0.2 0,0.1 -0.08,0.19 -0.19,0.19 -0.11,0 -0.19,-0.09 -0.19,-0.19 0,-0.11 0.08,-0.2 0.19,-0.2z"/>
    <path class="fil3" d="M4.03 5.04l0.07 -0.39c0.05,-0.24 0.25,-0.41 0.5,-0.41l1.42 0c0.08,0 0.19,0.05 0.21,0.13 0.04,0.14 0.07,0.29 0.07,0.44 0,0.06 -0.01,0.12 -0.02,0.18 -0.13,-0.12 -0.3,-0.19 -0.48,-0.2l-1.07 -0.02c-0.14,0 -0.25,0.1 -0.27,0.23 -0.01,0.03 -0.03,0.04 -0.05,0.04l-0.38 0z"/>
    <path class="fil1" d="M5.4 9.39c-0.09,-0.07 -0.16,-0.16 -0.24,-0.26 0,-0.01 0,-0.01 0,-0.01 -0.31,-0.39 -0.59,-0.82 -0.85,-1.25 -0.03,-0.08 -0.05,-0.21 -0.05,-0.29 0.01,-0.17 0.1,-0.28 0.26,-0.35 0,0 0.01,0 0.01,0 0.31,0.52 1.08,1.45 1.49,2.04 -0.2,0.05 -0.41,0.1 -0.62,0.12z"/>
   </g>
   <path class="fil4" d="M4.81 1.63c1.75,0 3.18,1.42 3.18,3.18 0,1.75 -1.43,3.18 -3.18,3.18 -1.76,0 -3.18,-1.43 -3.18,-3.18 0,-1.76 1.42,-3.18 3.18,-3.18z"/>
   <path class="fil5" d="M0.44 4.61l0.19 -0.01 0 0.15 0.74 -0.02 0.01 0.24 -0.74 0.02 0 0.14 -0.19 0 -0.01 -0.52zm0.06 -0.48l0.92 0.12 -0.03 0.24 -0.92 -0.12 0.03 -0.24zm0.04 -0.28l0.05 -0.16c0.03,-0.11 0.06,-0.18 0.08,-0.22 0.02,-0.03 0.05,-0.06 0.09,-0.07 0.04,-0.02 0.1,-0.02 0.18,0.01 0.06,0.02 0.11,0.04 0.13,0.06 0.02,0.03 0.02,0.06 0.01,0.12 0.03,-0.05 0.05,-0.07 0.07,-0.08 0.03,-0.01 0.05,-0.02 0.06,-0.02 0.02,0 0.07,0.01 0.14,0.04l0.23 0.06 -0.06 0.22 -0.29 -0.09c-0.05,-0.01 -0.08,-0.02 -0.1,-0.01 -0.01,0 -0.02,0.02 -0.03,0.05l0.4 0.12 -0.07 0.23 -0.89 -0.26zm0.22 -0.18l0.2 0.05c0.01,-0.02 0.01,-0.04 0.01,-0.05 -0.01,-0.02 -0.03,-0.03 -0.07,-0.04l-0.05 -0.01c-0.03,-0.01 -0.05,-0.01 -0.06,-0.01 -0.01,0.01 -0.02,0.03 -0.03,0.06zm0.78 -0.87c0.09,0.04 0.15,0.08 0.18,0.1 0.03,0.02 0.06,0.05 0.07,0.08 0.02,0.04 0.03,0.08 0.03,0.12 -0.01,0.04 -0.02,0.09 -0.04,0.13 -0.03,0.05 -0.05,0.08 -0.09,0.11 -0.03,0.03 -0.07,0.05 -0.1,0.05 -0.04,0.01 -0.08,0.01 -0.12,-0.01 -0.04,-0.01 -0.1,-0.04 -0.18,-0.08l-0.14 -0.08c-0.08,-0.04 -0.14,-0.07 -0.17,-0.09 -0.04,-0.02 -0.06,-0.05 -0.08,-0.09 -0.02,-0.03 -0.03,-0.07 -0.02,-0.11 0,-0.05 0.01,-0.09 0.04,-0.14 0.02,-0.04 0.05,-0.08 0.08,-0.11 0.03,-0.02 0.07,-0.04 0.11,-0.05 0.04,0 0.08,0 0.11,0.01 0.04,0.02 0.1,0.04 0.18,0.09l0.14 0.07zm-0.38 0.08c-0.04,-0.02 -0.06,-0.03 -0.07,-0.04 -0.02,0 -0.03,0.01 -0.03,0.02 -0.01,0.01 -0.01,0.02 0,0.03 0,0.01 0.03,0.03 0.07,0.05l0.38 0.2c0.05,0.03 0.08,0.04 0.1,0.04 0.01,0 0.02,0 0.03,-0.02 0,-0.01 0,-0.02 -0.01,-0.04 -0.01,-0.01 -0.04,-0.02 -0.09,-0.05l-0.38 -0.19zm0.24 -0.81l0.27 -0.3 0.14 0.12 -0.11 0.13 0.13 0.11 0.1 -0.11 0.13 0.12 -0.09 0.11 0.29 0.25 -0.16 0.19 -0.7 -0.62zm0.44 -0.46l0.3 -0.26 0.12 0.14 -0.12 0.1 0.12 0.13 0.11 -0.09 0.12 0.13 -0.12 0.1 0.14 0.15 0.13 -0.11 0.12 0.14 -0.32 0.27 -0.6 -0.7zm0.54 -0.44l0.16 -0.09c0.1,-0.06 0.17,-0.09 0.21,-0.11 0.04,-0.01 0.08,-0.01 0.11,0 0.03,0.01 0.06,0.03 0.08,0.05 0.01,0.03 0.05,0.08 0.09,0.15l0.17 0.28c0.04,0.07 0.06,0.12 0.07,0.15 0.01,0.03 0.01,0.06 0,0.08 -0.01,0.02 -0.03,0.05 -0.05,0.07 -0.02,0.02 -0.06,0.04 -0.11,0.07l-0.26 0.15 -0.47 -0.8zm0.29 0.02l0.31 0.52c0.03,-0.01 0.04,-0.03 0.04,-0.05 0,-0.01 -0.01,-0.05 -0.04,-0.1l-0.18 -0.31c-0.03,-0.04 -0.04,-0.06 -0.05,-0.07 -0.01,-0.01 -0.02,-0.01 -0.03,-0.01 -0.01,0 -0.03,0 -0.05,0.02zm0.48 -0.43l0.39 -0.13 0.06 0.18 -0.16 0.05 0.06 0.17 0.14 -0.05 0.06 0.16 -0.14 0.05 0.06 0.2 0.17 -0.06 0.06 0.17 -0.39 0.14 -0.31 -0.88zm0.64 -0.2l0.17 -0.03c0.11,-0.02 0.19,-0.03 0.23,-0.03 0.04,0 0.08,0.02 0.11,0.05 0.03,0.03 0.05,0.08 0.07,0.16 0.01,0.07 0.01,0.12 0,0.15 -0.02,0.03 -0.05,0.05 -0.1,0.06 0.05,0.01 0.08,0.01 0.1,0.03 0.02,0.02 0.04,0.03 0.04,0.05 0.01,0.02 0.02,0.06 0.03,0.13l0.05 0.24 -0.22 0.04 -0.06 -0.3c-0.01,-0.05 -0.02,-0.08 -0.03,-0.09 0,-0.01 -0.03,-0.01 -0.06,0l0.08 0.41 -0.24 0.04 -0.17 -0.91zm0.27 0.11l0.04 0.2c0.02,0 0.04,-0.01 0.05,-0.02 0.01,-0.01 0.01,-0.03 0,-0.07l-0.01 -0.05c0,-0.03 -0.01,-0.05 -0.02,-0.06 -0.01,0 -0.03,0 -0.06,0zm1.01 -0.22l0.11 0.93 -0.25 0 0 -0.17 -0.09 0 -0.02 0.16 -0.25 0 0.15 -0.93 0.35 0.01zm-0.15 0.59c-0.01,-0.1 -0.01,-0.23 -0.02,-0.39 -0.03,0.18 -0.05,0.31 -0.06,0.39l0.08 0zm0.75 -0.51l-0.14 0.73 0.15 0.03 -0.04 0.18 -0.38 -0.07 0.17 -0.91 0.24 0.04zm1.38 0.53l-0.42 0.82 -0.19 -0.09 0.29 -0.56 -0.36 0.52 -0.14 -0.07 0.2 -0.59 -0.27 0.55 -0.19 -0.1 0.42 -0.82 0.28 0.14c-0.02,0.05 -0.04,0.12 -0.07,0.19l-0.07 0.22 0.24 -0.36 0.28 0.15zm0.26 0.17l0.32 0.25 -0.11 0.15 -0.13 -0.1 -0.11 0.14 0.12 0.09 -0.11 0.14 -0.12 -0.09 -0.12 0.16 0.14 0.11 -0.12 0.14 -0.33 -0.26 0.57 -0.73zm0.89 0.81l-0.67 0.65 -0.15 -0.16 0.22 -0.38 -0.3 0.29 -0.14 -0.14 0.67 -0.65 0.14 0.15 -0.21 0.39 0.3 -0.29 0.14 0.14zm0.22 0.3l0.09 0.15c0.06,0.11 0.09,0.18 0.1,0.22 0.01,0.04 0.01,0.07 0,0.1 -0.01,0.04 -0.03,0.06 -0.05,0.08 -0.02,0.02 -0.07,0.05 -0.15,0.09l-0.28 0.17c-0.07,0.04 -0.12,0.06 -0.15,0.07 -0.03,0.01 -0.05,0.01 -0.08,0 -0.02,-0.01 -0.04,-0.03 -0.06,-0.05 -0.02,-0.02 -0.05,-0.06 -0.08,-0.11l-0.15 -0.26 0.81 -0.46zm-0.02 0.29l-0.53 0.3c0.02,0.03 0.04,0.04 0.05,0.04 0.02,0 0.05,-0.01 0.11,-0.04l0.31 -0.18c0.04,-0.02 0.06,-0.04 0.07,-0.04 0.01,-0.01 0.01,-0.02 0.01,-0.03 0,-0.01 -0.01,-0.03 -0.02,-0.05zm0.1 1.17c-0.09,0.03 -0.16,0.05 -0.19,0.06 -0.04,0 -0.08,0 -0.12,-0.01 -0.04,-0.01 -0.07,-0.03 -0.1,-0.06 -0.03,-0.04 -0.05,-0.08 -0.07,-0.13 -0.01,-0.04 -0.02,-0.09 -0.02,-0.13 0.01,-0.04 0.02,-0.08 0.04,-0.11 0.03,-0.04 0.05,-0.06 0.09,-0.08 0.03,-0.02 0.1,-0.04 0.19,-0.07l0.15 -0.05c0.09,-0.03 0.15,-0.05 0.19,-0.06 0.04,-0.01 0.07,0 0.11,0.01 0.04,0.01 0.07,0.03 0.1,0.06 0.03,0.03 0.05,0.07 0.07,0.12 0.02,0.05 0.02,0.1 0.02,0.14 0,0.04 -0.02,0.08 -0.04,0.11 -0.02,0.04 -0.05,0.06 -0.09,0.08 -0.03,0.01 -0.09,0.04 -0.18,0.07l-0.15 0.05zm0.21 -0.33c0.04,-0.01 0.06,-0.02 0.07,-0.03 0.01,-0.01 0.02,-0.02 0.01,-0.03 0,-0.02 -0.01,-0.02 -0.02,-0.03 -0.01,0 -0.04,0.01 -0.09,0.02l-0.41 0.14c-0.05,0.02 -0.08,0.03 -0.09,0.04 -0.01,0.01 -0.01,0.02 -0.01,0.03 0.01,0.02 0.02,0.03 0.03,0.03 0.02,0 0.05,-0.01 0.1,-0.03l0.41 -0.14zm0.43 0.82l-0.18 0.03 -0.58 -0.08 0.03 0.18 -0.18 0.03 -0.08 -0.44 0.13 -0.02 0.64 0.07 -0.03 -0.16 0.18 -0.03 0.07 0.42zm0.02 0.73l-0.93 0.11 0.01 -0.25 0.17 0 0 -0.09 -0.17 -0.02 0.01 -0.25 0.92 0.15 -0.01 0.35zm-0.59 -0.15c0.1,0 0.24,-0.01 0.39,-0.02 -0.18,-0.03 -0.31,-0.05 -0.39,-0.06l0 0.08z"/>
   <path class="fil5" d="M2.79 3.91c0.01,0.01 0.01,0 0.02,-0.01l0.02 -0.04c0.01,-0.01 0.01,-0.02 -0.01,-0.02l-0.14 -0.08 0.07 -0.13c0,-0.01 0,-0.01 -0.01,-0.02l-0.03 -0.01c-0.01,-0.01 -0.02,-0.01 -0.02,0l-0.07 0.13 -0.08 -0.04c0,0 -0.01,-0.01 -0.01,-0.01 0,0 0,-0.01 0,-0.01l0.07 -0.13c0,-0.01 0,-0.01 -0.01,-0.02l-0.03 -0.01c-0.01,-0.01 -0.02,-0.01 -0.02,0l-0.08 0.15c-0.01,0.02 -0.01,0.04 0,0.06 0,0.01 0.02,0.03 0.04,0.04l0.29 0.15zm0.05 -0.36c0.04,0.03 0.07,0.04 0.11,0.04 0.03,-0.01 0.07,-0.04 0.1,-0.08 0.03,-0.05 0.04,-0.09 0.04,-0.12 -0.01,-0.04 -0.03,-0.07 -0.07,-0.1l-0.21 -0.15c-0.01,-0.01 -0.02,0 -0.03,0.01l-0.02 0.03c-0.01,0.02 -0.01,0.02 0,0.03l0.21 0.15c0.02,0.01 0.04,0.03 0.04,0.05 0.01,0.02 0,0.04 -0.02,0.06 -0.01,0.02 -0.03,0.04 -0.05,0.04 -0.02,0 -0.04,-0.01 -0.06,-0.02l-0.21 -0.15c-0.01,-0.01 -0.02,-0.01 -0.02,0l-0.03 0.04c-0.01,0.01 -0.01,0.01 0,0.02l0.22 0.15zm0.34 -0.25c0.01,0.01 0.02,0.01 0.03,0l0.03 -0.03c0.01,-0.01 0.01,-0.01 0,-0.02l-0.18 -0.19 0 0 0.3 0.08c0.01,0 0.02,0 0.03,-0.01l0.03 -0.03c0.01,-0.01 0.01,-0.01 0,-0.02l-0.27 -0.28c-0.01,-0.01 -0.01,-0.01 -0.02,0l-0.03 0.03c-0.01,0.01 -0.01,0.01 0,0.02l0.18 0.19 0 0 -0.3 -0.08c-0.01,0 -0.02,0 -0.03,0.01l-0.03 0.03c-0.01,0.01 -0.01,0.01 0,0.02l0.26 0.28zm0.31 -0.29c0.01,0.02 0.02,0.02 0.03,0.01 0.01,0 0.03,-0.01 0.07,-0.04 0.03,-0.02 0.06,-0.04 0.08,-0.06 0.01,-0.02 0.03,-0.04 0.04,-0.06 0.01,-0.05 0,-0.1 -0.04,-0.16l-0.02 -0.03c-0.03,-0.06 -0.07,-0.09 -0.12,-0.1 -0.05,-0.01 -0.09,0.01 -0.16,0.05 -0.03,0.02 -0.05,0.04 -0.07,0.05 -0.02,0.01 -0.02,0.02 -0.01,0.04l0.2 0.3zm-0.1 -0.31c-0.01,0 -0.01,-0.01 0,-0.01 0,-0.01 0.01,-0.01 0.02,-0.02 0.08,-0.05 0.12,-0.04 0.18,0.05l0.01 0.02c0.05,0.08 0.04,0.13 -0.03,0.18l-0.02 0.01c-0.01,0.01 -0.01,0 -0.02,-0.01l-0.14 -0.22zm0.41 0.13c0,0.02 0.01,0.01 0.02,0.01l0.04 -0.02c0.01,0 0.02,-0.01 0.02,-0.02l-0.01 -0.09 0.13 -0.05 0.05 0.07c0.01,0.01 0.02,0.01 0.03,0l0.04 -0.01c0.01,-0.01 0.02,-0.01 0.01,-0.02 -0.09,-0.12 -0.17,-0.22 -0.25,-0.31 -0.01,-0.02 -0.02,-0.02 -0.05,-0.01l-0.03 0.01c-0.02,0.01 -0.03,0.02 -0.03,0.04 0,0.14 0.01,0.27 0.03,0.4zm0.06 -0.19c-0.01,-0.07 -0.01,-0.13 -0.02,-0.17l0.01 -0.01c0.03,0.05 0.07,0.09 0.11,0.15l-0.1 0.03zm0.32 0.03c0,0.02 0.01,0.03 0.03,0.02 0,0 0.03,0 0.07,-0.01 0.04,-0.01 0.07,-0.02 0.1,-0.04 0.02,-0.01 0.04,-0.02 0.06,-0.04 0.03,-0.04 0.03,-0.09 0.02,-0.16l-0.01 -0.04c-0.02,-0.07 -0.04,-0.11 -0.09,-0.13 -0.04,-0.02 -0.09,-0.03 -0.16,-0.01 -0.03,0.01 -0.06,0.02 -0.09,0.03 -0.01,0 -0.02,0.01 -0.01,0.03l0.08 0.35zm0.01 -0.33c-0.01,0 0,-0.01 0,-0.01 0.01,0 0.02,0 0.03,0 0.09,-0.03 0.13,0 0.15,0.09l0 0.03c0.03,0.1 0,0.14 -0.09,0.16l-0.02 0c-0.01,0.01 -0.01,0 -0.01,-0.01l-0.06 -0.26zm0.37 0.08c0,0.07 0.02,0.13 0.05,0.16 0.03,0.03 0.06,0.04 0.12,0.04 0.06,0 0.1,-0.02 0.12,-0.05 0.03,-0.03 0.05,-0.08 0.05,-0.16l0 -0.02c-0.01,-0.08 -0.02,-0.13 -0.06,-0.16 -0.02,-0.03 -0.07,-0.04 -0.12,-0.04 -0.06,0 -0.09,0.02 -0.12,0.04 -0.03,0.04 -0.04,0.09 -0.04,0.17l0 0.02zm0.08 -0.02c0,-0.05 0,-0.09 0.02,-0.12 0.01,-0.01 0.03,-0.02 0.06,-0.02 0.03,0 0.05,0 0.07,0.02 0.02,0.03 0.02,0.06 0.02,0.12l0 0.01c0,0.05 0,0.09 -0.02,0.11 -0.01,0.02 -0.03,0.03 -0.06,0.03 -0.03,0 -0.05,-0.01 -0.06,-0.02 -0.02,-0.03 -0.03,-0.06 -0.03,-0.12l0 -0.01zm0.51 0.04c-0.01,0.04 -0.02,0.08 -0.02,0.12 0,0.03 0,0.05 0.01,0.06 0.01,0.01 0.03,0.02 0.07,0.03l0.14 0.03c0.02,0 0.02,0 0.02,-0.02l0.01 -0.03c0,-0.01 0,-0.02 -0.01,-0.02l-0.14 -0.02c-0.02,-0.01 -0.02,-0.01 -0.02,-0.03 0,-0.03 0.01,-0.06 0.01,-0.09l0.15 0.02c0.01,0 0.01,0 0.01,-0.01l0.01 -0.04c0,-0.01 0,-0.01 -0.01,-0.01l-0.15 -0.03c0.01,-0.02 0.01,-0.05 0.02,-0.08 0.01,-0.02 0.01,-0.02 0.03,-0.02l0.14 0.03c0.01,0 0.01,0 0.01,-0.01l0.01 -0.04c0,-0.01 0,-0.01 -0.01,-0.02l-0.15 -0.02c-0.03,-0.01 -0.05,-0.01 -0.07,0 -0.01,0.01 -0.02,0.03 -0.03,0.05 -0.01,0.04 -0.02,0.08 -0.03,0.12l0 0.03zm0.29 0.24c0,0.02 0,0.02 0.01,0.02l0.04 0.02c0.02,0 0.02,0 0.02,-0.01l0.1 -0.24 0 0 0.06 0.3c0,0.02 0,0.02 0.02,0.03l0.04 0.01c0.01,0.01 0.01,0.01 0.02,-0.01l0.14 -0.36c0.01,-0.01 0,-0.01 -0.01,-0.02l-0.04 -0.01c-0.01,-0.01 -0.01,-0.01 -0.02,0.01l-0.1 0.24 0 0 -0.05 -0.31c0,-0.01 -0.01,-0.02 -0.03,-0.02l-0.03 -0.02c-0.01,0 -0.02,0 -0.02,0.01l-0.15 0.36zm0.7 0.01c0,0 0.01,0.01 0.02,0.01l0.07 0.01 0 0 -0.16 0.23 -0.06 -0.05c-0.02,-0.01 -0.02,-0.01 -0.03,0.01l-0.01 0.02c-0.01,0.01 -0.01,0.02 0,0.02l0.19 0.14c0.01,0.01 0.01,0.01 0.02,-0.01l0.02 -0.02c0.01,-0.01 0,-0.02 -0.01,-0.03l-0.05 -0.04 0.19 -0.27c0.01,-0.01 0.01,-0.02 -0.01,-0.03l-0.02 -0.02c-0.01,-0.01 -0.02,-0.01 -0.03,-0.01l-0.1 -0.01c-0.02,0 -0.02,0 -0.02,0.01l-0.01 0.04zm0.15 0.36c-0.02,0.02 -0.03,0.06 -0.03,0.09 0.01,0.03 0.03,0.07 0.06,0.09 0.03,0.03 0.07,0.05 0.1,0.05 0.03,0.01 0.06,0 0.09,-0.03l0.01 -0.01c0.03,-0.03 0.04,-0.06 0.02,-0.11 0.04,0.01 0.08,0 0.1,-0.03l0.01 -0.01c0.04,-0.05 0.02,-0.12 -0.03,-0.17 -0.06,-0.06 -0.13,-0.06 -0.18,-0.02l0 0.01c-0.03,0.03 -0.04,0.06 -0.03,0.1 -0.04,-0.01 -0.08,0 -0.11,0.03l-0.01 0.01zm0.07 0.05c0.02,-0.03 0.05,-0.04 0.07,-0.03l0.01 0.02c0.03,0.06 0.03,0.08 0.01,0.1l0 0c-0.01,0.02 -0.02,0.02 -0.04,0.02 -0.01,0 -0.03,-0.01 -0.04,-0.02 -0.02,-0.02 -0.03,-0.03 -0.03,-0.05 0,-0.01 0,-0.03 0.02,-0.04l0 0zm0.14 -0.14c0.01,-0.01 0.02,-0.02 0.04,-0.01 0.01,0 0.02,0 0.04,0.02 0.01,0.01 0.02,0.02 0.02,0.03 0,0.02 -0.01,0.03 -0.02,0.04l0 0c-0.02,0.02 -0.04,0.03 -0.07,0.03l-0.01 -0.02c-0.02,-0.05 -0.02,-0.07 0,-0.09l0 0zm0.06 0.35c-0.03,0.03 -0.04,0.06 -0.04,0.09 0,0.03 0.02,0.07 0.04,0.1 0.02,0.04 0.05,0.06 0.08,0.07 0.03,0.01 0.07,0.01 0.1,-0.02l0.01 0c0.03,-0.03 0.05,-0.06 0.04,-0.11 0.04,0.02 0.08,0.01 0.11,-0.01l0 0c0.06,-0.04 0.05,-0.12 0.01,-0.18 -0.05,-0.07 -0.12,-0.09 -0.17,-0.05l0 0.01c-0.04,0.02 -0.05,0.05 -0.05,0.09 -0.04,-0.01 -0.09,-0.01 -0.12,0.01l-0.01 0zm0.06 0.06c0.03,-0.01 0.05,-0.02 0.08,-0.01l0 0.03c0.02,0.06 0.02,0.08 0,0.1l-0.01 0c-0.01,0.01 -0.02,0.01 -0.04,0.01 -0.01,0 -0.03,-0.01 -0.04,-0.03 -0.01,-0.02 -0.02,-0.04 -0.02,-0.05 0,-0.02 0.01,-0.03 0.03,-0.04l0 -0.01zm0.17 -0.1c0.01,-0.01 0.02,-0.01 0.04,-0.01 0.01,0 0.02,0.01 0.03,0.03 0.01,0.01 0.01,0.03 0.01,0.04 0,0.01 -0.01,0.02 -0.02,0.03l0 0.01c-0.02,0.01 -0.05,0.02 -0.07,0.01l-0.01 -0.03c-0.01,-0.04 -0.01,-0.07 0.01,-0.08l0.01 0zm0.06 0.31c-0.11,0.05 -0.16,0.12 -0.11,0.22 0.03,0.04 0.05,0.07 0.09,0.08 0.03,0.01 0.06,0.01 0.1,-0.01l0.01 -0.01c0.04,-0.02 0.06,-0.04 0.07,-0.07 0.01,-0.03 0,-0.06 -0.01,-0.1 -0.02,-0.02 -0.04,-0.05 -0.06,-0.06 0.03,-0.02 0.06,-0.03 0.09,-0.02 0.02,0.01 0.04,0.02 0.05,0.05 0.01,0.02 0.02,0.04 0.02,0.06 0,0.01 0.01,0.02 0.02,0.01l0.03 0c0.01,-0.01 0.02,-0.01 0.01,-0.02 0,-0.02 -0.01,-0.06 -0.02,-0.08 -0.03,-0.05 -0.06,-0.08 -0.1,-0.1 -0.04,-0.01 -0.1,0.01 -0.17,0.04l-0.02 0.01zm0.03 0.08c0.02,0.01 0.04,0.03 0.05,0.05 0.01,0.02 0.01,0.04 0.01,0.05 -0.01,0.01 -0.02,0.02 -0.04,0.03l-0.01 0.01c-0.02,0.01 -0.04,0.01 -0.05,0.01 -0.02,-0.01 -0.03,-0.02 -0.04,-0.04 -0.01,-0.02 -0.01,-0.03 0,-0.05 0.01,-0.02 0.04,-0.04 0.08,-0.06z"/>
   <path class="fil6" d="M4.81 0c2.65,0 4.8,2.15 4.8,4.81 0,2.65 -2.15,4.8 -4.8,4.8 -2.66,0 -4.81,-2.15 -4.81,-4.8 0,-2.66 2.15,-4.81 4.81,-4.81zm0 0.18c2.55,0 4.62,2.07 4.62,4.63 0,2.55 -2.07,4.62 -4.62,4.62 -2.56,0 -4.63,-2.07 -4.63,-4.62 0,-2.56 2.07,-4.63 4.63,-4.63z"/>
  </g>
 </g>
</svg>
