<?xml version="1.0" encoding="UTF-8"?>
<!DOCTYPE svg PUBLIC "-//W3C//DTD SVG 1.1//EN" "http://www.w3.org/Graphics/SVG/1.1/DTD/svg11.dtd">
<!-- Creator: CorelDRAW -->
<svg xmlns="http://www.w3.org/2000/svg" xml:space="preserve" width="1287px" height="1275px" version="1.1" style="shape-rendering:geometricPrecision; text-rendering:geometricPrecision; image-rendering:optimizeQuality; fill-rule:evenodd; clip-rule:evenodd"
viewBox="0 0 10.83 10.73"
 xmlns:xlink="http://www.w3.org/1999/xlink"
 xmlns:xodm="http://www.corel.com/coreldraw/odm/2003">
 <defs>
  <style type="text/css">
   <![CDATA[
    .str1 {stroke:#495156;stroke-width:0.01;stroke-miterlimit:22.9256}
    .str0 {stroke:#73ACDF;stroke-width:0.01;stroke-miterlimit:22.9256}
    .fil4 {fill:none}
    .fil17 {fill:black}
    .fil3 {fill:black}
    .fil0 {fill:#031B30}
    .fil6 {fill:#040D12}
    .fil7 {fill:#272F34}
    .fil10 {fill:#495156}
    .fil8 {fill:#6D2424}
    .fil1 {fill:#73ACDF}
    .fil16 {fill:#856F5E}
    .fil14 {fill:#8C7B77}
    .fil19 {fill:#A69D97}
    .fil9 {fill:#AB3D34}
    .fil15 {fill:#AD9787}
    .fil11 {fill:#C7ACA7}
    .fil20 {fill:#CCCCCC}
    .fil12 {fill:#CCCCCC}
    .fil18 {fill:#D9CCC3}
    .fil13 {fill:#FDF9F7}
    .fil2 {fill:white}
    .fil5 {fill:black;fill-rule:nonzero}
   ]]>
  </style>
 </defs>
 <g id="Capa_x0020_1">
  <metadata id="CorelCorpID_0Corel-Layer"/>
  <g id="_105553164922464">
   <path class="fil0" d="M6.9 10.33l0.48 0.2 -0.83 -0.11c-0.2,0.06 -0.41,0.09 -0.63,0.12l0.05 0.19 -0.1 -0.18c-0.65,0.07 -1.31,0.02 -1.95,-0.15 -1.06,-0.29 -1.98,-0.88 -2.68,-1.7l-0.11 0.24 0.02 -0.35c-0.16,-0.21 -0.31,-0.43 -0.44,-0.66 -0.7,-1.21 -0.89,-2.65 -0.53,-4.01 0.37,-1.36 1.25,-2.51 2.46,-3.21 1.22,-0.7 2.66,-0.89 4.02,-0.53 1.36,0.37 2.51,1.25 3.21,2.46 0.7,1.22 0.89,2.66 0.53,4.02 -0.12,0.42 -0.28,0.83 -0.49,1.21l0.92 0.32 -1.09 -0.04c-0.45,0.7 -1.07,1.29 -1.81,1.72 -0.33,0.19 -0.67,0.34 -1.03,0.46z"/>
  </g>
  <g id="_105553164919680">
   <path class="fil1" d="M6.47 0.88c2.43,0.66 3.88,3.16 3.22,5.59 -0.65,2.43 -3.15,3.88 -5.58,3.22 -2.43,-0.65 -3.88,-3.15 -3.23,-5.58 0.66,-2.43 3.16,-3.88 5.59,-3.23z"/>
   <path class="fil2" d="M6.08 2.33c1.64,0.43 2.61,2.12 2.17,3.75 -0.44,1.64 -2.12,2.61 -3.75,2.17 -1.64,-0.44 -2.61,-2.12 -2.17,-3.75 0.43,-1.64 2.12,-2.61 3.75,-2.17z"/>
   <path class="fil1 str0" d="M5.7 3.75c0.85,0.23 1.35,1.1 1.12,1.95 -0.22,0.85 -1.09,1.35 -1.94,1.12 -0.85,-0.22 -1.35,-1.09 -1.13,-1.94 0.23,-0.85 1.1,-1.35 1.95,-1.13z"/>
   <path class="fil3" d="M6.53 0.66c2.55,0.69 4.07,3.31 3.39,5.87 -0.69,2.55 -3.32,4.07 -5.87,3.39 -2.56,-0.69 -4.07,-3.32 -3.39,-5.87 0.69,-2.56 3.31,-4.07 5.87,-3.39zm-0.06 0.22c2.43,0.66 3.88,3.16 3.22,5.59 -0.65,2.43 -3.15,3.88 -5.58,3.22 -2.43,-0.65 -3.88,-3.15 -3.23,-5.58 0.66,-2.43 3.16,-3.88 5.59,-3.23z"/>
   <path class="fil4" d="M6.2 1.92c1.86,0.5 2.97,2.42 2.47,4.29 -0.5,1.87 -2.42,2.97 -4.29,2.47 -1.86,-0.5 -2.97,-2.42 -2.47,-4.28 0.5,-1.87 2.42,-2.98 4.29,-2.48z"/>
   <path class="fil5" d="M1.28 4.78l-0.01 0.14 0.63 0.06 -0.01 0.14 -0.64 -0.05 -0.01 0.14 -0.14 -0.01 0.03 -0.43 0.15 0.01zm0.67 -0.15l-0.03 0.14 -0.76 -0.15 0.03 -0.14 0.76 0.15zm0.09 -0.37l-0.33 0.03 -0.02 0.04 0.31 0.09 -0.04 0.14 -0.75 -0.22 0.08 -0.28c0.01,-0.04 0.04,-0.07 0.07,-0.09 0.04,-0.02 0.08,-0.02 0.11,-0.01l0.17 0.05c0.03,0.01 0.05,0.02 0.07,0.05 0.02,0.03 0.03,0.05 0.03,0.08l0.35 -0.03 -0.05 0.15zm-0.44 -0.11l-0.17 -0.05 -0.04 0.14 0.17 0.05 0.04 -0.14zm0.63 -0.36l-0.07 0.15c-0.01,0.04 -0.04,0.06 -0.08,0.07 -0.03,0.02 -0.07,0.02 -0.11,0l-0.44 -0.21c-0.04,-0.01 -0.06,-0.04 -0.07,-0.08 -0.02,-0.04 -0.02,-0.07 0,-0.11l0.07 -0.15c0.01,-0.03 0.04,-0.06 0.08,-0.07 0.04,-0.01 0.08,-0.01 0.11,0l0.45 0.21c0.03,0.02 0.05,0.04 0.07,0.08 0.01,0.04 0.01,0.08 -0.01,0.11zm-0.13 -0.06l-0.44 -0.21 -0.07 0.15 0.44 0.21 0.07 -0.15zm0.12 -1.07l0.39 0.29c0.03,0.02 0.05,0.05 0.06,0.09 0,0.04 -0.01,0.08 -0.03,0.11l-0.18 0.24 -0.62 -0.46 0.18 -0.24c0.02,-0.03 0.05,-0.05 0.09,-0.06 0.04,0 0.08,0 0.11,0.03zm0.31 0.4l-0.4 -0.29 -0.09 0.13 0.39 0.29 0.1 -0.13zm0.36 -0.17l-0.11 0.1 -0.55 -0.55 0.1 -0.1 0.56 0.55zm0.27 -0.25l-0.38 -0.21 0.26 0.31 -0.11 0.09 -0.5 -0.6 0.12 -0.1 0.38 0.22 -0.26 -0.32 0.11 -0.09 0.5 0.6 0 0 -0.12 0.1zm-0.15 -0.68c-0.02,-0.03 -0.03,-0.07 -0.02,-0.11 0.01,-0.04 0.03,-0.07 0.07,-0.09l0.13 -0.08c0.03,-0.02 0.07,-0.02 0.11,-0.01 0.04,0.01 0.07,0.03 0.09,0.06l0.33 0.54 -0.13 0.08 -0.12 -0.21 -0.14 0.08 0.13 0.21 -0.12 0.07 -0.33 -0.54zm0.25 0.13l0.13 -0.08 -0.13 -0.21 -0.13 0.08 0.13 0.21zm1.01 -0.06l-0.13 0.06 -0.17 -0.41 -0.01 0.3 -0.22 -0.2 0.17 0.41 -0.13 0.05 -0.31 -0.71 0.13 -0.06 0.22 0.2 0.01 -0.3 0.14 -0.06 0.3 0.72zm0.22 -0.04l-0.14 0.04 -0.2 -0.76 0.14 -0.03 0.2 0.75zm0.35 -0.07l-0.15 0.03c-0.03,0 -0.07,-0.01 -0.1,-0.03 -0.04,-0.02 -0.05,-0.05 -0.06,-0.09l-0.08 -0.49c-0.01,-0.04 0,-0.07 0.03,-0.1 0.02,-0.04 0.05,-0.06 0.09,-0.06l0.15 -0.03c0.04,0 0.07,0.01 0.11,0.03 0.03,0.02 0.05,0.05 0.06,0.09l0 0.06 -0.14 0.02 -0.01 -0.06 -0.15 0.03 0.08 0.48 0.15 -0.02 -0.01 -0.06 0.14 -0.03 0.01 0.07c0.01,0.03 0,0.07 -0.02,0.1 -0.03,0.04 -0.06,0.05 -0.1,0.06zm0.53 -0.03l-0.17 0c-0.04,0 -0.07,-0.01 -0.1,-0.04 -0.03,-0.02 -0.04,-0.06 -0.04,-0.1l-0.01 -0.49c0,-0.04 0.01,-0.07 0.04,-0.1 0.03,-0.03 0.06,-0.04 0.1,-0.04l0.16 -0.01c0.04,0 0.08,0.02 0.1,0.05 0.03,0.02 0.05,0.06 0.05,0.09l0.01 0.5c0,0.03 -0.02,0.07 -0.04,0.1 -0.03,0.03 -0.07,0.04 -0.1,0.04zm-0.01 -0.14l0 -0.49 -0.17 0 0.01 0.49 0.16 0zm0.99 0.3l-0.14 -0.03 0.1 -0.43 -0.18 0.23 -0.06 -0.29 -0.1 0.43 -0.14 -0.03 0.18 -0.76 0.14 0.03 0.06 0.29 0.18 -0.23 0.14 0.04 -0.18 0.75zm0.41 0.17l-0.35 -0.14 0.3 -0.72 0.34 0.14 -0.05 0.13 -0.21 -0.08 -0.07 0.16 0.18 0.07 -0.05 0.14 -0.18 -0.08 -0.07 0.16 0.22 0.09 -0.06 0.13zm0.32 0.18l0.08 -0.43 -0.21 0.35 -0.12 -0.07 0.39 -0.67 0.14 0.08 -0.08 0.43 0.21 -0.35 0.12 0.07 -0.39 0.67 0 0 -0.14 -0.08zm0.94 -0.09l-0.31 0.38c-0.02,0.03 -0.06,0.05 -0.1,0.05 -0.04,0.01 -0.07,0 -0.1,-0.03l-0.24 -0.19 0.5 -0.6 0.23 0.19c0.03,0.02 0.05,0.06 0.05,0.1 0.01,0.04 0,0.07 -0.03,0.1zm-0.42 0.29l0.31 -0.38 -0.12 -0.1 -0.31 0.38 0.12 0.1zm0.28 0.48l-0.11 -0.12c-0.03,-0.03 -0.04,-0.06 -0.04,-0.1 0,-0.04 0.02,-0.08 0.05,-0.1l0.36 -0.33c0.03,-0.03 0.06,-0.04 0.1,-0.04 0.04,0 0.08,0.02 0.1,0.05l0.11 0.12c0.03,0.02 0.04,0.06 0.04,0.1 0,0.04 -0.02,0.07 -0.05,0.1l-0.36 0.33c-0.03,0.03 -0.06,0.04 -0.1,0.04 -0.04,-0.01 -0.08,-0.02 -0.1,-0.05zm0.1 -0.1l0.37 -0.33 -0.11 -0.12 -0.37 0.33 0.11 0.12zm0.27 0.61l-0.24 -0.34 0.06 -0.04 0.6 -0.13 -0.12 -0.17 0.12 -0.09 0.22 0.33 -0.07 0.04 -0.58 0.13 0.12 0.19 -0.11 0.08zm0.6 -0.22c0.03,-0.01 0.07,-0.02 0.11,0 0.03,0.01 0.06,0.04 0.08,0.07l0.07 0.14c0.01,0.03 0.02,0.07 0,0.11 -0.01,0.04 -0.03,0.06 -0.07,0.08l-0.57 0.28 -0.06 -0.13 0.22 -0.11 -0.07 -0.14 -0.22 0.11 -0.06 -0.13 0.57 -0.28zm-0.16 0.24l0.07 0.14 0.22 -0.11 -0.07 -0.14 -0.22 0.11z"/>
   <path class="fil6" d="M7.43 6.61l0.01 -0.39 1.09 -0.08c0.13,-0.01 0.2,-0.08 0.2,-0.22l0.02 -0.47c-0.6,0.02 -1.83,0.2 -1.82,0.2 -0.19,0.07 -0.35,0.3 -0.48,0.49 -0.03,-0.19 -0.14,-0.44 -0.33,-0.57 0.42,-0.23 0.47,-1.01 0.02,-1.37 0.07,-0.29 0.04,-0.41 -0.01,-0.5 -0.02,-0.04 -0.05,-0.05 -0.09,-0.05 -0.06,0 -0.14,0 -0.17,0.01 -0.03,-0.1 -0.09,-0.2 -0.2,-0.32 0.25,-0.63 -1.02,-1.02 -1.67,-0.57 -0.07,0.01 -0.24,0.03 -0.31,0.05 -0.08,0.03 -0.1,0.04 -0.15,0.1 -0.22,0.24 -0.27,0.46 -0.39,0.68 -0.39,0.19 -0.48,0.89 -0.14,1.33 -0.17,0.09 -0.26,0.27 -0.27,0.31 -0.8,0.03 -1.84,0.82 -0.78,2.42 0.06,0.22 0.04,0.52 0.01,0.76 0.56,0.59 1.29,1.05 2.14,1.27 0.51,0.14 1.03,0.19 1.53,0.15 -0.06,-0.41 -0.07,-1.01 0.22,-1.42 0.1,0.15 0.38,0.18 0.61,0.13 -0.05,-0.03 -0.09,-0.05 -0.09,-0.09 0.7,0.02 0.81,-0.75 1.25,-0.88 0,-0.11 -0.36,-0.63 -0.2,-0.97z"/>
   <path class="fil7" d="M6 8.21c0.04,0.08 0.2,0.13 0.24,0.11 -0.03,-0.02 -0.05,-0.05 -0.05,-0.07 0.25,0.13 0.63,-0.01 0.73,-0.11 -0.05,0.01 -0.11,0 -0.15,-0.01 0.1,-0.04 0.69,-0.6 0.76,-0.58 0.05,0.02 -0.16,-0.05 -0.18,-0.08 -0.11,0.23 -0.67,0.51 -1.08,0.42 -0.11,0.07 -0.23,0.23 -0.27,0.32z"/>
   <path class="fil8" d="M3.87 3.02c-0.08,0.11 -0.15,0.26 -0.17,0.44 0.06,-0.02 0.12,-0.17 0.43,-0.28 0.48,-0.15 0.84,0.15 1.09,0.23 0.22,0.07 0.35,-0.09 0.35,-0.3 -0.03,-0.01 -0.1,-0.13 -0.16,-0.13 -0.24,-0.09 -0.91,-0.36 -1.21,-0.06 -0.15,0.03 -0.24,0.01 -0.33,0.1z"/>
   <path class="fil9" d="M3.87 3.02c0.47,-0.14 0.68,-0.16 1.26,0.15 -0.08,-0.2 -0.28,-0.29 -0.48,-0.36 0.19,0.01 0.38,0.08 0.53,0.19 0.14,0.09 0.06,0.11 0.23,0.12 0.06,0 0.11,-0.02 0.16,-0.01 -0.02,-0.15 -0.2,-0.23 -0.32,-0.29 -0.34,-0.15 -1.05,-0.3 -1.38,0.2z"/>
   <path class="fil10" d="M3.27 3.57c0.11,-0.04 0.28,-0.03 0.36,-0.01 -0.03,-0.22 0.13,-0.57 0.29,-0.72 -0.05,0.01 -0.21,0.04 -0.26,0.06 -0.2,0.15 -0.33,0.47 -0.39,0.67z"/>
   <path class="fil11" d="M3.77 3.62c0.06,0.03 0.08,0.09 0.12,0.13 0.08,0 0.21,-0.01 0.29,-0.02 0.35,-0.06 0.68,-0.03 0.99,0.03 0.19,0.04 0.34,0.06 0.6,-0.07 -0.04,-0.09 -0.1,-0.19 -0.18,-0.25 -0.21,0.32 -0.66,-0.02 -0.9,-0.1 -0.32,-0.12 -0.74,-0.04 -0.92,0.28z"/>
   <path class="fil7" d="M3.77 4.63c-0.04,0.13 -0.13,0.28 -0.33,0.35 0.28,0.01 0.39,-0.17 0.44,-0.4l-0.11 0.05z"/>
   <path class="fil7" d="M2.96 3.99c-0.14,0.37 0.03,0.99 0.43,0.88 0.28,-0.11 0.22,-1.42 -0.43,-0.88z"/>
   <path class="fil10" d="M2.96 4c0.15,-0.18 0.39,-0.16 0.48,-0.02 0.17,0.23 0.11,0.78 -0.05,0.89 0.34,-0.1 0.31,-0.6 0.23,-0.84 -0.14,-0.37 -0.57,-0.39 -0.66,-0.03z"/>
   <path class="fil10" d="M3.89 4.56c0,-0.02 0,-0.03 0,-0.04 0.05,-0.34 -0.07,-0.75 -0.25,-0.85 -0.07,-0.04 -0.27,-0.05 -0.34,-0.01 0.38,-0.02 0.57,0.54 0.46,0.94 0,0.01 0,0.02 -0.01,0.02 0.01,0 0.01,0 0.01,0 0.03,0 0.05,-0.02 0.08,-0.03 0.02,-0.01 0.03,-0.02 0.05,-0.03z"/>
   <path class="fil7" d="M3.44 4.98c0.27,0.01 0.4,-0.18 0.45,-0.42 -0.02,0.01 -0.03,0.02 -0.05,0.03 -0.03,0.01 -0.05,0.03 -0.08,0.03 0,0 0,0 -0.01,0 -0.05,0.17 -0.15,0.3 -0.31,0.36z"/>
   <path class="fil10" d="M4.09 7.06c-0.2,-0.13 -0.54,-0.47 -0.62,-0.57 -0.21,-0.12 -0.37,-0.27 -0.48,-0.42 -0.03,-0.06 -0.06,-0.1 -0.07,-0.12 -0.15,-0.16 -0.28,-0.16 -0.39,-0.16 0.13,0.06 0.37,0.38 0.38,0.41 -0.08,-0.03 -0.04,0.05 -0.12,0.07 0.38,0.16 0.93,0.56 1.3,0.79z"/>
   <path class="fil7" d="M2.79 6.27c0.08,-0.02 0.19,0 0.27,0.02 -0.02,-0.03 -0.17,-0.33 -0.5,-0.5 0.11,0.02 0.24,0.07 0.36,0.16 -0.07,-0.1 -0.09,-0.21 -0.09,-0.31 -0.03,0 -0.06,0.03 -0.09,0.06 -0.04,-0.08 -0.06,-0.21 -0.02,-0.29 -0.53,0.08 -0.9,0.38 -0.93,0.84 0.03,-0.08 0.25,-0.22 0.37,-0.27 -0.1,0.22 -0.28,0.46 -0.1,0.86 0,-0.19 0.02,-0.31 0.16,-0.44 -0.01,0.23 0.03,0.57 0.21,0.75 -0.01,-0.16 0.01,-0.25 0.05,-0.34 0.15,0.4 0.44,0.79 0.87,0.94 -0.01,-0.03 -0.18,-0.16 -0.2,-0.35 0.16,0.11 0.29,0.14 0.46,0.15 0.05,-0.1 0.18,-0.21 0.33,-0.26l-0.41 0.06c0.14,-0.14 0.48,-0.22 0.67,-0.21 -0.06,-0.07 -1.08,-0.79 -1.41,-0.87z"/>
   <path class="fil10 str1" d="M4.79 6.45c0.11,-0.08 0.23,-0.28 0.23,-0.42 -0.02,0.02 -0.06,0.05 -0.1,0.06 0.05,-0.05 0.08,-0.09 0.09,-0.22 0,0 -0.09,0.12 -0.15,0.12 -0.04,0.01 -0.06,0.4 -0.07,0.46z"/>
   <path class="fil7" d="M4.79 6.45c0.13,-0.14 0.2,-0.39 0,-0.55 0.03,0.07 0.03,0.12 0.02,0.17 -0.15,-0.19 -0.23,-0.27 -0.4,-0.31 0.28,0.24 0.39,0.49 0.38,0.69z"/>
   <path class="fil12" d="M4.96 6.6c0.01,0.17 -0.27,0.61 -0.25,0.65 0.29,-0.22 0.36,-0.44 0.39,-0.47 0.01,0.02 0.02,0.03 0.03,0.08 0.09,-0.1 0.1,-0.36 0.08,-0.47 -0.03,0.02 -0.05,0.1 -0.07,0.13 -0.03,0.06 0.05,-0.1 -0.18,0.08z"/>
   <path class="fil12" d="M4.71 7.25c-0.03,-0.13 -0.03,-0.78 -0.34,-0.83l0.07 0.28c-0.29,-0.23 -0.36,-0.31 -0.57,-0.61 -0.05,0.17 -0.01,0.27 0.07,0.4 -0.25,-0.22 -0.4,-0.55 -0.53,-0.75 -0.04,0.09 -0.05,0.17 -0.05,0.27 -0.03,-0.03 -0.08,-0.11 -0.1,-0.16 -0.08,-0.21 -0.01,-0.46 0.18,-0.56 0.17,0.35 0.51,0.71 0.72,0.67 -0.06,-0.08 -0.11,-0.17 -0.21,-0.25 -0.23,-0.18 -0.38,-0.46 -0.39,-0.62 -0.31,0.08 -0.37,-0.05 -0.46,-0.03 -0.13,0.02 -0.26,0.26 -0.27,0.39 0.07,-0.09 0.17,-0.12 0.29,-0.11 -0.35,0.43 0.22,0.87 0.36,0.99l-0.01 -0.2c0.16,0.4 0.37,0.48 0.64,0.66 0,-0.03 -0.03,-0.2 -0.04,-0.26 0.14,0.22 0.44,0.33 0.64,0.72z"/>
   <path class="fil12" d="M5.23 6.29c0.05,-0.01 0.31,0.04 0.33,0.18 0.09,-0.1 0.07,-0.23 0.05,-0.35 -0.02,0.03 -0.11,-0.01 -0.13,0.03 -0.03,0.06 -0.02,-0.05 -0.25,0.14z"/>
   <path class="fil12" d="M5.46 5.85c0.03,-0.01 0.12,0.36 0.2,0.4 0.03,-0.19 0.02,-0.3 0,-0.35 0.03,0.01 0.08,0.03 0.1,0.05 -0.07,-0.18 -0.03,-0.42 -0.1,-0.29 -0.04,0.06 0.03,0 -0.2,0.19z"/>
   <path class="fil13" d="M5.12 6.6c0.04,0.08 0.02,0.22 0.01,0.26 0.26,-0.21 0.31,-0.45 0.33,-0.62 0.07,0.06 0.08,0.13 0.1,0.23 0.16,-0.13 0.12,-0.48 0.02,-0.65 0.11,0.02 0.14,0.08 0.18,0.13 -0.01,-0.13 -0.06,-0.48 -0.18,-0.55 -0.03,0.05 -0.08,0.08 -0.13,0.12 -0.08,0.06 -0.08,0.03 -0.09,0.15 -0.01,0.08 -0.08,0.29 -0.15,0.34 -0.01,-0.07 -0.03,-0.1 -0.06,-0.15 0.03,0.31 -0.15,0.53 -0.36,0.73 -0.06,-0.21 -0.34,-0.45 -0.48,-0.59 -0.11,-0.09 -0.31,-0.24 -0.36,-0.29 0.04,0.05 0.04,0.15 0.1,0.19 -0.3,-0.1 -0.5,-0.46 -0.49,-0.81 -0.25,0.04 -0.29,0 -0.38,-0.02 -0.08,-0.01 -0.21,0.11 -0.25,0.27 0.13,-0.08 0.21,-0.09 0.29,-0.03 -0.29,0.23 -0.07,0.64 0.17,0.82 0,-0.1 -0.02,-0.3 0.02,-0.39 0,0.26 0.35,0.82 0.6,0.88 -0.05,-0.14 -0.14,-0.36 -0.14,-0.53 0.17,0.36 0.32,0.49 0.62,0.73 0,-0.09 -0.06,-0.29 -0.12,-0.4 0.28,0.26 0.31,0.7 0.34,0.83 0.29,-0.24 0.33,-0.42 0.41,-0.65z"/>
   <path class="fil7" d="M3.39 8.39c0.05,0.05 0.6,0.42 0.93,0.28 0.28,-0.12 0.52,-0.22 0.74,-0.26 -0.15,0 -0.2,-0.01 -0.28,-0.07 0.19,-0.03 0.29,-0.08 0.5,-0.21 -0.09,0.02 -0.37,0.06 -0.55,-0.01 -0.12,0.14 -0.19,0.15 -0.4,0.18 0.03,0.02 0.1,0.09 0.14,0.1 -0.19,0.05 -0.46,0.02 -0.58,-0.13 0.01,0.11 0.02,0.17 0.12,0.27 -0.21,-0.03 -0.46,-0.29 -0.5,-0.5 -0.2,-0.07 -0.53,-0.2 -0.82,-0.44 0.03,0.16 0.01,0.12 0.09,0.26 -0.47,-0.28 -1.03,-0.85 -0.93,-1.44 -0.35,1.15 1.24,1.71 1.54,1.97z"/>
   <path class="fil10" d="M4.55 8.05c-0.06,-0.02 -0.13,-0.05 -0.15,-0.17 0.37,0.05 1.84,-0.25 1.95,-0.52 -0.19,0.04 -0.65,0.04 -0.71,0.01 0.2,-0.06 0.5,-0.21 0.59,-0.51 -0.15,0.06 -0.27,0.07 -0.42,0.05 0.14,-0.1 0.23,-0.18 0.3,-0.36 -0.68,0.45 -1.19,0.47 -1.71,0.67 -0.12,0.05 -0.54,0.15 -0.65,0.4 -0.27,0.59 0.59,0.64 0.8,0.43z"/>
   <path class="fil7" d="M4.55 8.05c-0.06,-0.02 -0.13,-0.05 -0.15,-0.17 0.17,0.16 0.68,0.21 0.97,0.16 0.28,-0.05 0.98,-0.36 1.54,-0.54 -0.15,0.03 -1.12,0.2 -1.33,0.14 0.16,-0.02 0.46,-0.13 0.54,-0.22 -0.13,0.04 -0.38,0 -0.48,-0.05 0.19,-0.06 0.51,-0.19 0.59,-0.51 -0.13,0.09 -0.52,0.16 -0.65,0.11 0.14,-0.03 0.36,-0.16 0.53,-0.42 -0.44,0.29 -1.1,0.48 -1.57,0.67 -0.27,0.1 -0.63,0.16 -0.7,0.5 -0.01,0.28 0.15,0.43 0.47,0.43 0.1,-0.01 0.19,-0.05 0.24,-0.1z"/>
   <path class="fil14" d="M4.75 4.62c-0.25,0.09 -0.62,-0.09 -0.66,-0.42 -0.01,-0.04 -0.04,-0.09 -0.1,-0.14 0.13,0.31 0.01,0.66 -0.08,0.84 0.14,0.52 0.73,0.75 1.12,0.65 -0.22,0.05 -0.69,-0.64 -0.28,-0.93z"/>
   <path class="fil10" d="M3.95 3.94c0.27,0.01 0.17,0 0.21,0 -0.01,0.17 0.05,0.37 0.15,0.46 0.13,0.12 0.44,0.18 0.54,0.1 -0.17,0.01 -0.37,-0.02 -0.48,-0.12 -0.14,-0.1 -0.18,-0.34 -0.13,-0.51 0.32,-0.04 0.65,0 0.96,0.07 0.27,0.06 0.26,0.06 0.41,-0.02 0.1,-0.06 0.33,-0.14 0.47,-0.15 -0.08,-0.08 -0.4,0.05 -0.51,0.08 -0.1,0.03 -0.19,0.03 -0.28,0.01 -0.29,-0.07 -0.71,-0.13 -1.07,-0.06 -0.02,0 -0.03,0.01 -0.05,0.01l-0.25 0.02c0,0.01 0.03,0.1 0.03,0.11z"/>
   <path class="fil7" d="M4.48 4.38c0.05,0.03 0.31,0.07 0.41,0.05 0.04,-0.02 0.26,-0.41 0.27,-0.45 -0.13,-0.02 -0.26,-0.05 -0.39,-0.06 -0.01,0.07 -0.13,0.32 -0.19,0.43 -0.02,0.02 -0.07,0.03 -0.1,0.03z"/>
   <path class="fil7" d="M8.46 6.07l0.12 -0.02c0.04,-0.01 0.07,-0.05 0.07,-0.11l0.01 -0.54 0 0 -0.1 0.01c0,0.18 0,0.37 -0.02,0.55 0,0.06 -0.04,0.1 -0.08,0.11z"/>
   <path class="fil10" d="M8.4 5.43l0 0.44c0.01,0.09 -0.04,0.17 -0.13,0.22 -0.06,0.03 -0.18,0.03 -0.23,0.06 0.07,0.02 0.16,0 0.23,-0.02 0.15,-0.04 0.19,-0.17 0.19,-0.3l0 -0.41 -0.06 0.01z"/>
   <path class="fil11" d="M4.75 4.62c-0.16,0.03 -0.39,-0.01 -0.54,-0.17 -0.06,-0.06 -0.1,-0.17 -0.12,-0.25 0.01,0.15 0.03,0.48 -0.11,0.73 0.05,0.16 0.2,0.34 0.38,0.38 -0.05,-0.05 -0.11,-0.18 -0.09,-0.27 0.1,0.15 0.23,0.22 0.39,0.28 -0.15,-0.18 -0.17,-0.55 0.09,-0.7z"/>
   <path class="fil15" d="M5.28 4.23c-0.01,0.31 -0.34,0.5 -0.42,0.55 -0.06,0.07 -0.08,0.19 -0.03,0.25 0.59,-0.55 1.31,0.09 1.33,0.36 0.32,-0.44 0.18,-1.07 -0.42,-1.26 -0.21,-0.07 -0.35,-0.11 -0.46,0.1z"/>
   <path class="fil6" d="M5.47 4.51c0,-0.03 -0.04,-0.12 0.03,-0.13 0.07,-0.02 0.2,0.05 0.24,0.11 -0.01,-0.15 -0.23,-0.26 -0.34,-0.23 -0.09,0.02 -0.08,0.24 0.07,0.25z"/>
   <path class="fil16" d="M4.82 4.62c-0.21,0.08 -0.17,0.49 0.01,0.58 0.12,0.06 0.21,0.04 0.35,0.02 0.29,-0.04 0.64,-0.04 0.82,0.06 -0.52,-0.6 -1.11,-0.24 -1.17,-0.25 -0.03,-0.06 -0.04,-0.17 0.03,-0.25 0.34,-0.13 0.47,-0.28 0.42,-0.55 -0.07,0.32 -0.29,0.36 -0.46,0.39z"/>
   <g>
    <path class="fil14" d="M6.22 7.11c-0.04,0.04 -0.07,0.07 -0.09,0.08 0.18,0.03 0.36,0.06 0.51,0.01 -0.05,0.13 -0.08,0.18 -0.2,0.28 0.43,-0.17 0.75,-0.07 1.23,-0.15 -0.04,-0.16 0.06,-0.47 0.3,-0.45 -0.21,-0.6 -0.25,-0.63 -0.51,-0.7 -0.04,-0.01 -0.09,-0.03 -0.13,-0.07 -0.02,-0.02 0.25,-0.12 0.22,-0.16 -0.05,-0.06 -0.39,-0.05 -0.41,-0.03 0.03,0.12 0.19,0.46 0.03,0.55 -0.09,0.04 -0.14,0.1 -0.23,0.14 0.11,0 0.23,-0.04 0.35,-0.03 0.02,0.05 -0.03,0.2 -0.09,0.24 -0.22,0.14 -0.2,0.08 -0.41,0.16 0.04,0.03 0.22,0.01 0.29,0.01 -0.03,0.04 -0.15,0.09 -0.21,0.11 -0.12,0.03 -0.1,-0.03 -0.2,-0.01 0,-0.02 -0.01,-0.06 -0.01,-0.06 -0.07,0.01 -0.26,0.07 -0.36,0.08 -0.03,0 -0.06,0.01 -0.08,0z"/>
    <path class="fil11" d="M6.21 7.12c0.1,0.01 0.32,-0.03 0.43,-0.07 0.01,0.04 -0.04,0.09 -0.04,0.09 0.15,-0.01 0.38,-0.03 0.48,-0.15 -0.07,0 -0.25,0.02 -0.29,-0.01 0.26,-0.05 0.49,-0.09 0.51,-0.4 0,-0.03 -0.31,0.03 -0.36,0.03 0.16,-0.08 0.24,-0.11 0.37,-0.23 -0.03,-0.02 -0.11,-0.21 -0.09,-0.36 0.04,0 0.06,0.02 0.14,0.02 0.15,0 0.4,-0.02 0.53,-0.04 0.22,-0.04 0.24,-0.24 0.17,-0.36 -0.34,-0.03 -0.38,0.02 -0.71,0.06 -0.39,0.05 -0.42,0 -0.67,0.32 -0.22,0.28 -0.26,0.5 -0.56,0.75 0.13,0.01 0.23,-0.09 0.27,-0.12 -0.01,0.18 -0.07,0.34 -0.18,0.47z"/>
    <path class="fil14" d="M7.22 6.06c0.02,0.01 0.05,0.03 0.08,0.04 0.13,0.06 0.57,-0.1 0.69,-0.09 0.08,0.01 0.22,-0.02 0.23,-0.18 0,-0.04 -0.01,-0.14 -0.04,-0.16 -0.06,-0.04 -0.15,-0.03 -0.16,-0.04 0.05,0.04 0.05,0.35 -0.34,0.35 -0.13,0 -0.36,0.08 -0.46,0.08z"/>
   </g>
   <path class="fil17" d="M7.09 7.06c0.06,-0.05 0.11,-0.07 0.21,-0.08 -0.05,-0.06 -0.1,-0.16 -0.11,-0.24 0.08,-0.06 0.16,-0.07 0.25,-0.09 -0.04,-0.04 -0.06,-0.09 -0.08,-0.13 0.05,-0.02 0.1,-0.06 0.14,-0.08 -0.07,-0.03 -0.17,-0.12 -0.2,-0.18 0.21,-0.16 0.32,-0.16 0.42,-0.19 0.26,-0.05 0.6,-0.09 0.78,0.1 0.1,0.11 0.02,0.31 -0.07,0.41 0,0.01 0.01,0.01 0.01,0.02 0.07,0.15 0.03,0.29 -0.08,0.4 -0.03,0.16 -0.14,0.31 -0.28,0.39 -0.12,0.34 -0.69,0.19 -1.1,0.04l0.51 0.02c-0.15,-0.15 -0.35,-0.09 -0.4,-0.39z"/>
   <g>
    <path class="fil14" d="M7.92 6.82c-0.27,-0.07 -0.52,0 -0.51,0.14 0.04,0.03 0.25,0.09 0.31,0.12 0.09,0.04 0.16,0.1 0.21,0.17 -0.06,-0.02 -0.19,-0.11 -0.24,-0.13 -0.23,-0.04 -0.45,0.02 -0.44,0.12 0.19,0.07 0.14,0.09 0.3,0.13 -0.07,0.04 -0.15,0.05 -0.24,0.05 0.5,0.16 0.7,-0.03 0.7,-0.13 0.15,-0.05 0.27,-0.23 0.25,-0.36 0.22,-0.19 0.04,-0.39 -0.14,-0.48 -0.18,0.1 -0.59,0.14 -0.5,0.22 0.12,0.02 0.61,0.1 0.55,0.28 -0.05,-0.03 -0.23,-0.13 -0.25,-0.13z"/>
    <path class="fil14" d="M8.05 6.35c0.03,0 0.09,0.04 0.12,0.07 0.03,0.03 0.04,0.09 0.02,0.1 0.01,0.03 0.08,0.05 0.1,0.08 0.34,-0.3 0.02,-0.46 -0.06,-0.48 -0.25,0.06 -0.78,0.14 -0.18,0.23z"/>
    <path class="fil11" d="M8.05 6.35c0.12,-0.06 0.18,-0.08 0.18,-0.23 -0.15,-0.05 -0.74,0.05 -0.81,0.16 0.08,0.23 0.48,0.03 0.63,0.07z"/>
    <path class="fil11" d="M7.65 6.67c0.16,-0.01 0.46,0.06 0.47,-0.22 -0.15,-0.06 -0.48,-0.02 -0.65,0.09 0.02,0.08 0.08,0.15 0.18,0.13z"/>
    <path class="fil11" d="M7.41 6.96c0.06,0.02 0.25,0.08 0.38,0.04 0.06,-0.02 0.14,-0.1 0.13,-0.18 -0.14,-0.07 -0.52,-0.14 -0.64,-0.05 0.01,0.06 0.06,0.16 0.13,0.19z"/>
    <path class="fil11" d="M7.27 7.25c0.32,0.12 0.46,-0.01 0.46,-0.1 -0.05,-0.08 -0.45,-0.15 -0.57,-0.06 0,0.06 0.05,0.14 0.11,0.16z"/>
   </g>
   <path class="fil6" d="M6.7 5.87l0.32 -0.21 2.72 -0.2c0.07,-0.01 0.13,-0.07 0.13,-0.14l0.02 -0.28 0 -0.01c0.03,-0.03 0.05,-0.06 0.05,-0.1l0.03 -0.44c0,-0.1 -0.12,-0.23 -0.24,-0.22l-0.11 0.01 -0.06 -0.08 -0.15 0.01 -0.04 0.08 -2.23 0.2 -0.06 -0.11 -0.28 0.04 -0.06 0.11 -0.1 0.01c-0.06,0 -0.06,0.02 -0.07,0.08l-0.1 0.76c0.15,0.02 0.27,0.1 0.23,0.49z"/>
   <path class="fil6" d="M9.64 5.28c0.01,-0.03 0.02,-0.08 0,-0.12 -0.02,-0.03 -0.07,-0.05 -0.11,-0.02 -0.04,0.04 -0.01,0.17 0.11,0.14z"/>
   <polygon class="fil10" points="7.91,5.21 7.9,5.37 9.43,5.24 9.44,5.14 9.38,5.09 "/>
   <path class="fil7" d="M6.61 5.31c0.22,0.04 0.23,0.38 0.24,0.38 0.05,-0.04 0.32,-0.04 0.52,-0.08 0.22,-0.04 0.35,-0.06 0.43,-0.05l0.04 -0.34 -1.23 0.09z"/>
   <path class="fil7" d="M7.47 4.58l-0.3 0.04 -0.06 0.54 2.27 -0.21 0.05 -0.53 -1.37 0.13 -0.03 0.23c-0.01,0.05 -0.04,0.08 -0.11,0.09l-0.42 0.03c-0.05,0.01 -0.07,-0.03 -0.06,-0.08l0.03 -0.24z"/>
   <polygon class="fil7" points="6.68,4.67 6.68,4.67 6.61,5.21 6.71,5.2 6.77,4.66 6.77,4.66 "/>
   <polygon class="fil7" points="6.8,4.66 6.8,4.66 6.73,5.19 6.83,5.19 6.89,4.65 6.89,4.65 "/>
   <polygon class="fil7" points="6.92,4.65 6.92,4.65 6.85,5.18 6.95,5.17 7.01,4.64 7.01,4.64 "/>
   <polygon class="fil7" points="7.04,4.64 7.04,4.64 6.97,5.17 7.07,5.16 7.13,4.63 7.13,4.63 "/>
   <g>
    <path class="fil7" d="M9.54 5l-0.01 0c-0.01,-0.01 -0.02,-0.03 -0.02,-0.05l0.02 -0.48c0.01,-0.06 0.05,-0.1 0.1,-0.1l0.13 0c0.03,-0.01 0.06,0.01 0.08,0.04 0.03,0.03 0.04,0.06 0.04,0.1l-0.03 0.45c0,0.01 0,0.02 -0.01,0.03l-0.02 0.02c-0.01,0.01 -0.01,0.02 -0.01,0.04l-0.01 0.29c0,0.03 -0.02,0.05 -0.05,0.05l-0.14 0c-0.02,0 -0.03,-0.01 -0.05,-0.02 -0.01,-0.01 -0.01,-0.03 -0.01,-0.05l0.01 -0.26c0,-0.02 -0.01,-0.04 -0.02,-0.06z"/>
    <g>
     <path class="fil10" d="M9.74 4.44c0.07,0.02 0.12,0.13 0.1,0.25 -0.01,0.12 -0.08,0.2 -0.15,0.18 -0.07,-0.02 -0.12,-0.13 -0.11,-0.25 0.02,-0.12 0.09,-0.2 0.16,-0.18z"/>
     <path class="fil17" d="M9.69 4.87c0,0 0,0 0,0 -0.07,-0.02 -0.12,-0.13 -0.11,-0.25 0.02,-0.09 0.06,-0.16 0.11,-0.17 0,0 0,0 0,0 0.08,0.02 0.12,0.13 0.11,0.24 -0.02,0.09 -0.06,0.16 -0.11,0.18z"/>
    </g>
    <g>
     <path class="fil10" d="M9.72 5.05c0.03,0.01 0.05,0.07 0.05,0.13 -0.01,0.06 -0.05,0.1 -0.08,0.09 -0.04,-0.01 -0.06,-0.07 -0.05,-0.13 0,-0.06 0.04,-0.1 0.08,-0.09z"/>
     <path class="fil17" d="M9.69 5.27c0,0 0,0 0,0 -0.04,-0.01 -0.06,-0.07 -0.05,-0.13 0,-0.05 0.02,-0.08 0.05,-0.09 0,0 0,0 0,0 0.04,0.01 0.06,0.07 0.05,0.13 0,0.05 -0.03,0.08 -0.05,0.09z"/>
    </g>
   </g>
   <line class="fil4" x1="8.54" y1="5.56" x2="8.44" y2= "5.57" />
   <path class="fil10" d="M7.55 4.58l0.43 -0.03 -0.03 0.22c-0.01,0.01 -0.02,0.01 -0.04,0.01l-0.39 0.04 0.03 -0.24z"/>
   <path class="fil10" d="M3.24 9.24c0.1,0.1 0.43,0.26 0.7,0.34 0.27,0.08 0.74,0.03 0.89,-0.05 -0.8,0.21 -1.58,-0.53 -1.67,-0.74 -0.01,0.08 0.06,0.28 0.09,0.34 -0.37,-0.08 -0.79,-0.77 -0.93,-1.07 0.01,0.02 -0.01,0.09 0,0.17 0.03,0.15 0,0.35 -0.02,0.5 0.13,0.12 0.28,0.24 0.44,0.34 0.28,0.1 0.39,0.09 0.5,0.17z"/>
   <path class="fil7" d="M3.11 9.3c0,-0.03 -0.01,-0.06 0,-0.08 0.21,0.21 0.51,0.32 0.83,0.36 -0.19,-0.08 -0.46,-0.28 -0.56,-0.37 -0.01,0.02 -0.01,0.05 0,0.09 -0.05,-0.04 -0.19,-0.32 -0.22,-0.51 -0.01,0.07 0.02,0.23 0.05,0.28 -0.33,-0.07 -0.76,-0.57 -0.89,-0.84 0.02,0.05 -0.01,0.29 -0.04,0.49 0.25,0.22 0.53,0.41 0.83,0.58z"/>
   <path class="fil18" d="M5.56 4.85c0.11,0.03 0.2,0.08 0.29,0.13 0.18,0.13 0.31,0.31 0.31,0.41 0.18,-0.24 0.21,-0.55 0.1,-0.8 -0.01,-0.04 -0.16,-0.13 -0.21,-0.13 -0.08,-0.01 -0.45,0.26 -0.49,0.39z"/>
   <path class="fil19" d="M5.63 5.2c0.15,0 0.28,0.03 0.37,0.08 -0.08,-0.09 -0.16,-0.16 -0.24,-0.21 -0.07,-0.04 -0.13,-0.07 -0.2,-0.1 -0.01,0.06 0,0.16 0.07,0.23z"/>
   <path class="fil20" d="M4.79 6.59c0.24,-0.21 0.51,-0.33 0.36,-0.73 -0.01,-0.01 -0.02,-0.02 -0.03,-0.04 0.06,0.21 -0.03,0.5 -0.33,0.77z"/>
  </g>
 </g>
</svg>
